<?xml version="1.0" encoding="utf-8"?>
<svg viewBox="0 0 167 41" fill="none" xmlns="http://www.w3.org/2000/svg">
  <path fill-rule="evenodd" clip-rule="evenodd" d="M8.65417 3.89149C7.22351 4.89185 5.92981 6.0746 4.80676 7.40602C9.39606 6.97995 15.2266 7.67567 21.9958 11.0603C29.2244 14.6745 35.0452 14.7967 39.0962 14.0153C38.7286 12.9024 38.2658 11.8328 37.7177 10.816C33.0804 11.3051 27.1354 10.6577 20.207 7.1936C15.8074 4.9938 11.9292 4.08763 8.65417 3.89149ZM35.0088 6.96027C31.3467 2.86862 26.0248 0.293625 20.1014 0.293625C18.3619 0.293625 16.6741 0.515732 15.0651 0.933105C17.2443 1.52771 19.5593 2.39761 21.9958 3.61589C27.0684 6.15215 31.4478 6.96878 35.0088 6.96027ZM39.9623 17.9217C35.0683 18.8881 28.3102 18.6896 20.207 14.638C12.6314 10.8502 6.60187 10.8979 2.53534 11.8016C2.32544 11.8482 2.12048 11.8972 1.92047 11.9482C1.38806 13.1061 0.963074 14.3237 0.658142 15.5881C0.983826 15.5011 1.32037 15.4184 1.6676 15.3412C6.60101 14.2449 13.5715 14.2925 21.9958 18.5047C29.5715 22.2925 35.601 22.2448 39.6676 21.3411C39.8069 21.3102 39.9442 21.2782 40.0792 21.2452C40.094 20.9299 40.1014 20.6126 40.1014 20.2936C40.1014 19.4911 40.0542 18.6996 39.9623 17.9217ZM39.4262 25.4659C34.5797 26.3132 28.0184 25.988 20.207 22.0824C12.6314 18.2946 6.60187 18.3423 2.53534 19.246C1.63269 19.4465 0.820679 19.6908 0.10437 19.9487C0.102417 20.0634 0.10144 20.1784 0.10144 20.2936C0.10144 31.3393 9.05573 40.2936 20.1014 40.2936C29.3585 40.2936 37.1467 34.0045 39.4262 25.4659Z" class="ccustom" fill="#0369a1"/>
  <path d="M 64.379 25.814 L 64.379 29.342 Q 63.035 29.622 61.747 29.762 Q 60.459 29.902 58.695 29.902 Q 56.427 29.902 54.873 29.51 Q 53.319 29.118 52.381 28.124 Q 51.443 27.13 51.023 25.31 Q 50.603 23.49 50.603 20.634 Q 50.603 17.89 51.023 16.126 Q 51.443 14.362 52.381 13.396 Q 53.319 12.43 54.873 12.052 Q 56.427 11.674 58.695 11.674 Q 60.459 11.674 61.747 11.8 Q 63.035 11.926 64.379 12.234 L 64.379 15.874 L 64.295 15.93 Q 63.119 15.65 62.027 15.524 Q 60.935 15.398 59.339 15.398 Q 58.051 15.398 57.225 15.58 Q 56.399 15.762 55.923 16.294 Q 55.447 16.826 55.265 17.862 Q 55.083 18.898 55.083 20.634 Q 55.083 22.454 55.265 23.56 Q 55.447 24.666 55.923 25.226 Q 56.399 25.786 57.225 25.982 Q 58.051 26.178 59.339 26.178 Q 60.907 26.178 62.013 26.08 Q 63.119 25.982 64.239 25.702 Z M 65.777 22.93 Q 65.777 19.178 67.373 17.526 Q 68.969 15.874 72.777 15.874 Q 75.325 15.874 76.865 16.602 Q 78.405 17.33 79.091 18.884 Q 79.777 20.438 79.777 22.93 Q 79.777 25.394 79.091 26.934 Q 78.405 28.474 76.865 29.188 Q 75.325 29.902 72.777 29.902 Q 68.969 29.902 67.373 28.264 Q 65.777 26.626 65.777 22.93 Z M 72.777 26.066 Q 74.401 26.066 74.975 25.352 Q 75.549 24.638 75.549 22.846 Q 75.549 21.138 74.975 20.396 Q 74.401 19.654 72.777 19.654 Q 71.209 19.654 70.607 20.396 Q 70.005 21.138 70.005 22.846 Q 70.005 24.638 70.607 25.352 Q 71.209 26.066 72.777 26.066 Z M 86.637 29.902 Q 84.061 29.902 82.969 28.53 Q 81.877 27.158 81.877 24.61 L 81.877 16.014 L 86.357 16.014 L 86.385 23.518 Q 86.385 24.778 86.833 25.296 Q 87.281 25.814 88.653 25.814 Q 89.969 25.814 90.431 25.352 Q 90.893 24.89 90.921 23.77 L 90.921 16.014 L 95.401 16.014 L 95.401 29.65 L 91.145 29.65 L 90.921 28.11 L 90.837 28.11 Q 90.473 28.922 89.353 29.412 Q 88.233 29.902 86.637 29.902 Z M 103.239 29.65 L 98.759 29.65 L 98.759 16.014 L 102.399 16.014 L 102.763 18.814 L 102.847 18.814 Q 103.099 17.246 104.051 16.56 Q 105.003 15.874 106.879 15.874 Q 107.635 15.874 108.251 15.944 Q 108.867 16.014 109.287 16.07 L 109.287 20.438 L 109.231 20.494 Q 108.783 20.382 108.209 20.298 Q 107.635 20.214 106.907 20.214 Q 105.871 20.214 105.045 20.55 Q 104.219 20.886 103.757 21.852 Q 103.295 22.818 103.295 24.722 L 103.295 24.722 Z M 110.633 25.786 Q 112.817 26.402 115.477 26.402 Q 116.765 26.402 117.409 26.318 Q 118.053 26.234 118.277 26.038 Q 118.501 25.842 118.501 25.506 Q 118.501 25.03 118.151 24.918 Q 117.801 24.806 116.765 24.61 L 114.553 24.19 Q 112.425 23.77 111.487 22.86 Q 110.549 21.95 110.549 20.13 Q 110.549 17.666 112.019 16.77 Q 113.489 15.874 116.709 15.874 Q 118.641 15.874 120.111 16.084 Q 121.581 16.294 122.561 16.602 L 122.505 19.99 L 122.421 20.074 Q 120.153 19.346 117.465 19.346 Q 116.149 19.346 115.631 19.528 Q 115.113 19.71 115.113 20.242 Q 115.113 20.522 115.267 20.69 Q 115.421 20.858 115.981 21.012 Q 116.541 21.166 117.745 21.39 L 119.789 21.782 Q 121.497 22.146 122.309 22.986 Q 123.121 23.826 123.121 25.646 Q 123.121 27.242 122.533 28.18 Q 121.945 29.118 120.559 29.51 Q 119.173 29.902 116.737 29.902 Q 114.889 29.902 113.335 29.72 Q 111.781 29.538 110.549 29.286 L 110.549 25.842 Z M 129.727 10.946 Q 129.811 11.954 129.811 12.626 Q 129.811 13.018 129.797 13.424 Q 129.783 13.83 129.727 14.334 Q 129.139 14.446 128.579 14.502 Q 128.019 14.558 127.459 14.558 Q 126.927 14.558 126.381 14.502 Q 125.835 14.446 125.275 14.334 Q 125.219 13.858 125.191 13.452 Q 125.163 13.046 125.163 12.654 Q 125.163 12.29 125.191 11.87 Q 125.219 11.45 125.275 10.946 Q 125.835 10.806 126.409 10.764 Q 126.983 10.722 127.543 10.722 Q 128.075 10.722 128.621 10.764 Q 129.167 10.806 129.727 10.946 Z M 129.727 29.65 L 125.247 29.65 L 125.247 16.014 L 129.727 16.014 Z M 131.715 19.654 L 131.715 16.014 L 133.703 16.014 L 133.703 15.314 Q 133.703 12.542 134.991 11.324 Q 136.279 10.106 138.827 10.106 Q 139.723 10.106 140.479 10.26 Q 141.235 10.414 141.795 10.61 L 141.795 13.746 L 141.711 13.802 Q 141.207 13.746 140.703 13.704 Q 140.199 13.662 139.751 13.662 Q 138.799 13.662 138.421 14.012 Q 138.043 14.362 138.043 15.09 L 138.043 16.014 L 141.795 16.014 L 141.795 19.654 L 138.043 19.654 L 138.043 29.65 L 133.703 29.65 L 133.703 19.654 Z M 145.603 34.802 L 147.759 29.678 L 142.355 16.07 L 142.355 16.014 L 147.367 16.014 Q 148.151 18.226 148.837 20.466 Q 149.523 22.706 149.943 25.058 L 149.999 25.058 Q 150.419 22.734 151.077 20.494 Q 151.735 18.254 152.575 16.014 L 157.391 16.014 L 157.391 16.098 L 150.195 34.858 L 145.603 34.858 Z" style="fill: rgb(2, 105, 160); text-transform: capitalize;"/>
</svg>